/* XPM */
static char * sdl_instead_xpm[] = {
"32 32 566 2",
"  	c None",
". 	c #6F6145",
"+ 	c #796E59",
"@ 	c #A58E5E",
"# 	c #373021",
"$ 	c #978765",
"% 	c #A59674",
"& 	c #9C9177",
"* 	c #A89D84",
"= 	c #B6A88C",
"- 	c #947E4F",
"; 	c #564A32",
"> 	c #AD996D",
", 	c #E9D09C",
"' 	c #ECD6A9",
") 	c #F1E0B9",
"! 	c #F4E3C0",
"~ 	c #F0DFBC",
"{ 	c #ECDAB6",
"] 	c #B5A68A",
"^ 	c #27231C",
"/ 	c #92856C",
"( 	c #6C5E40",
"_ 	c #E8CD94",
": 	c #EAD3A1",
"< 	c #C5B490",
"[ 	c #857B66",
"} 	c #645D4E",
"| 	c #897E69",
"1 	c #D3C2A1",
"2 	c #EBD8B1",
"3 	c #F3DEB5",
"4 	c #7A6F5A",
"5 	c #4D412A",
"6 	c #DEC185",
"7 	c #DAC28E",
"8 	c #E0CB9C",
"9 	c #5E5644",
"0 	c #625A4A",
"a 	c #EDD8B0",
"b 	c #E8D2AA",
"c 	c #D3BF99",
"d 	c #D3BE97",
"e 	c #6F644F",
"f 	c #4B412C",
"g 	c #211C13",
"h 	c #BFAA7F",
"i 	c #E6D1A3",
"j 	c #EDDAB3",
"k 	c #867D6A",
"l 	c #403B30",
"m 	c #EED9B0",
"n 	c #EAD5AB",
"o 	c #AC9B7C",
"p 	c #EED7AA",
"q 	c #B7A481",
"r 	c #66593F",
"s 	c #E5CD9A",
"t 	c #E9D4A8",
"u 	c #D3C3A2",
"v 	c #F1E1BD",
"w 	c #F0DFBB",
"x 	c #B3A589",
"y 	c #736A58",
"z 	c #A4977B",
"A 	c #9D8F75",
"B 	c #D8C59F",
"C 	c #E7D1A8",
"D 	c #BCAA87",
"E 	c #000000",
"F 	c #97876A",
"G 	c #E8CFA1",
"H 	c #E7CD9E",
"I 	c #7E6F56",
"J 	c #A7997C",
"K 	c #EEDDB8",
"L 	c #857C68",
"M 	c #F3E1BB",
"N 	c #EAD8B2",
"O 	c #EEDAB3",
"P 	c #F0DBB3",
"Q 	c #EED9AF",
"R 	c #D9C49C",
"S 	c #0B0A08",
"T 	c #242019",
"U 	c #EDD2A2",
"V 	c #8A7A5D",
"W 	c #4C4434",
"X 	c #DCC9A3",
"Y 	c #EFDFBB",
"Z 	c #B5A88D",
"` 	c #675F4E",
" .	c #CEBC99",
"..	c #322D25",
"+.	c #3F392E",
"@.	c #DBC69E",
"#.	c #E5CEA3",
"$.	c #CFB78C",
"%.	c #DFC494",
"&.	c #CCB286",
"*.	c #2B261C",
"=.	c #F5E3BF",
"-.	c #A59880",
";.	c #6B6250",
">.	c #7B705A",
",.	c #8F8064",
"'.	c #ECD2A5",
").	c #4D4435",
"!.	c #B29D76",
"~.	c #CDB386",
"{.	c #A78F66",
"].	c #877250",
"^.	c #4E493D",
"/.	c #E5D5B2",
"(.	c #EDDBB7",
"_.	c #AC9E83",
":.	c #4A4336",
"<.	c #EFD9AE",
"[.	c #B8A684",
"}.	c #C8B28B",
"|.	c #ECD2A2",
"1.	c #29241C",
"2.	c #C1A97E",
"3.	c #DFC290",
"4.	c #978360",
"5.	c #312A1F",
"6.	c #C8AB7B",
"7.	c #726145",
"8.	c #D8B882",
"9.	c #967E58",
"0.	c #A88D62",
"a.	c #473B27",
"b.	c #B3A588",
"c.	c #E1CEA9",
"d.	c #E7D0A6",
"e.	c #E7CFA4",
"f.	c #E0C99E",
"g.	c #E4CB9E",
"h.	c #E4CA9C",
"i.	c #E2C899",
"j.	c #D0B78B",
"k.	c #41392B",
"l.	c #E8CA95",
"m.	c #A38D67",
"n.	c #6F5F45",
"o.	c #110F0A",
"p.	c #BFA374",
"q.	c #DEBC84",
"r.	c #E0BE84",
"s.	c #DDB980",
"t.	c #E0BC80",
"u.	c #B59665",
"v.	c #89714C",
"w.	c #786E5A",
"x.	c #EFDBB3",
"y.	c #ECD7AF",
"z.	c #706652",
"A.	c #B5A281",
"B.	c #E5CEA2",
"C.	c #DCC59A",
"D.	c #C7B189",
"E.	c #C4AD86",
"F.	c #827358",
"G.	c #D8BE90",
"H.	c #E0C493",
"I.	c #E4C794",
"J.	c #A38E68",
"K.	c #E1C28E",
"L.	c #B99F73",
"M.	c #5F513A",
"N.	c #D6B681",
"O.	c #DBBA82",
"P.	c #C2A371",
"Q.	c #443927",
"R.	c #67573B",
"S.	c #DEB97B",
"T.	c #DCB678",
"U.	c #070503",
"V.	c #494236",
"W.	c #23201A",
"X.	c #D9C69F",
"Y.	c #DAC59E",
"Z.	c #918267",
"`.	c #E9D1A5",
" +	c #ECD2A4",
".+	c #453E2F",
"++	c #0D0701",
"@+	c #BBA277",
"#+	c #DFC28E",
"$+	c #DFC08C",
"%+	c #BCA276",
"&+	c #5E4734",
"*+	c #483F2E",
"=+	c #A58C61",
"-+	c #E0BD82",
";+	c #413625",
">+	c #9A7F54",
",+	c #D7B073",
"'+	c #CAA66B",
")+	c #735E3C",
"!+	c #645A49",
"~+	c #E5CFA5",
"{+	c #E9D2A6",
"]+	c #E7CFA3",
"^+	c #E7CEA1",
"/+	c #786A52",
"(+	c #10334E",
"_+	c #406481",
":+	c #474D4C",
"<+	c #E5C58F",
"[+	c #E4C48D",
"}+	c #C5A978",
"|+	c #372C29",
"1+	c #AF9566",
"2+	c #C3A471",
"3+	c #DCB97E",
"4+	c #625237",
"5+	c #B59460",
"6+	c #DCB473",
"7+	c #302718",
"8+	c #4B4436",
"9+	c #8D7E63",
"0+	c #E9D0A1",
"a+	c #E7CC9E",
"b+	c #968566",
"c+	c #524735",
"d+	c #1F303A",
"e+	c #4A6F8A",
"f+	c #888A83",
"g+	c #A08B67",
"h+	c #E6C68F",
"i+	c #E4C38C",
"j+	c #5A3626",
"k+	c #683F2B",
"l+	c #5F4E43",
"m+	c #594546",
"n+	c #6A553C",
"o+	c #DDB87C",
"p+	c #DCB779",
"q+	c #967B50",
"r+	c #B3935F",
"s+	c #D7B070",
"t+	c #C39E64",
"u+	c #CAA365",
"v+	c #3D301E",
"w+	c #D0B98F",
"x+	c #463D2D",
"y+	c #CFB68B",
"z+	c #E9CD9A",
"A+	c #E8CB98",
"B+	c #EACB95",
"C+	c #E8C892",
"D+	c #E6C791",
"E+	c #E2C28C",
"F+	c #AD976E",
"G+	c #8F7D5D",
"H+	c #92724F",
"I+	c #640200",
"J+	c #6A0B07",
"K+	c #573730",
"L+	c #B69965",
"M+	c #7A6345",
"N+	c #DDB677",
"O+	c #DAB373",
"P+	c #D8B170",
"Q+	c #DEB470",
"R+	c #5D4B2F",
"S+	c #09151D",
"T+	c #1C415C",
"U+	c #497496",
"V+	c #DBBC89",
"W+	c #5E6465",
"X+	c #C3A87B",
"Y+	c #9F8E6E",
"Z+	c #C0A67A",
"`+	c #958669",
" @	c #897C62",
".@	c #928264",
"+@	c #5E7588",
"@@	c #494B4F",
"#@	c #7F0300",
"$@	c #990600",
"%@	c #860100",
"&@	c #6A3232",
"*@	c #5C4436",
"=@	c #AD8E5B",
"-@	c #6D543A",
";@	c #AA8955",
">@	c #1C252B",
",@	c #987847",
"'@	c #2A4C64",
")@	c #4F84A9",
"!@	c #7EB5DE",
"~@	c #84A8C2",
"{@	c #7094AF",
"]@	c #4E6572",
"^@	c #78A0BF",
"/@	c #927B55",
"(@	c #5E7686",
"_@	c #7D7767",
":@	c #727167",
"<@	c #5E778A",
"[@	c #5B6160",
"}@	c #6C889C",
"|@	c #7492A9",
"1@	c #84AAC4",
"2@	c #954248",
"3@	c #B00000",
"4@	c #8A0300",
"5@	c #672C21",
"6@	c #52342E",
"7@	c #472828",
"8@	c #715B37",
"9@	c #450000",
"0@	c #314050",
"a@	c #396686",
"b@	c #11293B",
"c@	c #5E95B6",
"d@	c #6AB8EE",
"e@	c #63AEE2",
"f@	c #5EA5D7",
"g@	c #5699C7",
"h@	c #4F8BB5",
"i@	c #4C87B1",
"j@	c #3C7196",
"k@	c #467FA7",
"l@	c #3D7196",
"m@	c #4A7796",
"n@	c #678AA3",
"o@	c #7695AB",
"p@	c #83A8C2",
"q@	c #8DB6D3",
"r@	c #98C6E5",
"s@	c #9ED2F4",
"t@	c #8897B1",
"u@	c #A41715",
"v@	c #A40300",
"w@	c #86100B",
"x@	c #71120D",
"y@	c #4C2B32",
"z@	c #4D677C",
"A@	c #45779D",
"B@	c #4D7687",
"C@	c #485345",
"D@	c #9A996B",
"E@	c #799A9B",
"F@	c #70BAED",
"G@	c #71BAEA",
"H@	c #6CB2E0",
"I@	c #65A8D4",
"J@	c #62A2CE",
"K@	c #5A96BF",
"L@	c #5995BE",
"M@	c #5792BA",
"N@	c #5692BA",
"O@	c #5A9BC8",
"P@	c #65A3CD",
"Q@	c #8ABEE2",
"R@	c #9ECDEE",
"S@	c #9DCEF1",
"T@	c #9BCEF2",
"U@	c #99CDF0",
"V@	c #8FCAEF",
"W@	c #895E6C",
"X@	c #825C69",
"Y@	c #6597B7",
"Z@	c #5289B1",
"`@	c #507B8F",
" #	c #7F8661",
".#	c #9E9D65",
"+#	c #5D5F41",
"@#	c #878662",
"##	c #756948",
"$#	c #97A387",
"%#	c #74B3DF",
"&#	c #7DC3F0",
"*#	c #7ABFEC",
"=#	c #78BCE9",
"-#	c #73B6E2",
";#	c #72B4E0",
">#	c #70B4E1",
",#	c #74B9E8",
"'#	c #74BBEA",
")#	c #74BCED",
"!#	c #79BFEF",
"~#	c #85C5F1",
"{#	c #8AC8F1",
"]#	c #8AC7F1",
"^#	c #86C4EF",
"/#	c #7DC0ED",
"(#	c #6EB7EB",
"_#	c #6396B0",
":#	c #858E6D",
"<#	c #A4A26B",
"[#	c #A5A56E",
"}#	c #ABAB77",
"|#	c #6D6E54",
"1#	c #764340",
"2#	c #BF7877",
"3#	c #614A34",
"4#	c #AEB182",
"5#	c #7AAAC1",
"6#	c #87CBF6",
"7#	c #85C8F2",
"8#	c #84C7F2",
"9#	c #84C6F1",
"0#	c #82C6F1",
"a#	c #81C5F2",
"b#	c #81C5F1",
"c#	c #80C5F1",
"d#	c #7FC4F1",
"e#	c #7EC4F1",
"f#	c #7DC2F0",
"g#	c #7CC3F1",
"h#	c #7BC3F4",
"i#	c #70A5C1",
"j#	c #8F9A7C",
"k#	c #AEAC73",
"l#	c #B1B17F",
"m#	c #BCBC93",
"n#	c #C8C6A3",
"o#	c #647270",
"p#	c #D88885",
"q#	c #DDA3A1",
"r#	c #D48785",
"s#	c #5C281C",
"t#	c #88A4A2",
"u#	c #8BCCF5",
"v#	c #8FCFF5",
"w#	c #8ECEF4",
"x#	c #8DCDF5",
"y#	c #8CCCF4",
"z#	c #8BCCF4",
"A#	c #8ACBF4",
"B#	c #89CAF4",
"C#	c #88CAF3",
"D#	c #88CCF7",
"E#	c #79ADC9",
"F#	c #919F84",
"G#	c #B3B079",
"H#	c #B0B07E",
"I#	c #B7B788",
"J#	c #C2C29A",
"K#	c #D0CEAC",
"L#	c #A7BDBC",
"M#	c #44667C",
"N#	c #0C141A",
"O#	c #740601",
"P#	c #CA4843",
"Q#	c #D77E7A",
"R#	c #D8817E",
"S#	c #7D2620",
"T#	c #B4B68D",
"U#	c #BEBD8B",
"V#	c #9DA88D",
"W#	c #8DC4E4",
"X#	c #99D6F8",
"Y#	c #97D4F7",
"Z#	c #96D3F7",
"`#	c #95D2F7",
" $	c #95D3F7",
".$	c #94D2F6",
"+$	c #94D3FA",
"@$	c #82B6D2",
"#$	c #94A38E",
"$$	c #B7B47F",
"%$	c #B6B686",
"&$	c #BCBC90",
"*$	c #C6C6A2",
"=$	c #D6D4B4",
"-$	c #B6C7C1",
";$	c #58798C",
">$	c #121D24",
",$	c #4E0200",
"'$	c #CC0800",
")$	c #960200",
"!$	c #D4504B",
"~$	c #D54D47",
"{$	c #586970",
"]$	c #CBCDB3",
"^$	c #CACAA4",
"/$	c #C1C193",
"($	c #B2B389",
"_$	c #8FB8C8",
":$	c #A3DDFD",
"<$	c #A1DAF9",
"[$	c #A0D9F9",
"}$	c #A1DBFD",
"|$	c #8DBFD9",
"1$	c #98A997",
"2$	c #BAB785",
"3$	c #BCBC8D",
"4$	c #C2C298",
"5$	c #CCCCA8",
"6$	c #DBD9BC",
"7$	c #C2CEC2",
"8$	c #7090A0",
"9$	c #1F2E38",
"0$	c #3E0200",
"a$	c #760400",
"b$	c #D21109",
"c$	c #840F0B",
"d$	c #678695",
"e$	c #C9D1C3",
"f$	c #D5D5B4",
"g$	c #C7C79E",
"h$	c #C1BF90",
"i$	c #97AFAA",
"j$	c #A7DEFC",
"k$	c #99C9E1",
"l$	c #9DAE9F",
"m$	c #BDBB8B",
"n$	c #C1C195",
"o$	c #C8C8A0",
"p$	c #D1D1B0",
"q$	c #DDDCC2",
"r$	c #CDD3C6",
"s$	c #89A8B3",
"t$	c #2E424E",
"u$	c #850500",
"v$	c #E50900",
"w$	c #250100",
"x$	c #4D6571",
"y$	c #BCCECB",
"z$	c #E0DFC3",
"A$	c #D0D0AD",
"B$	c #C9C99C",
"C$	c #AAB193",
"D$	c #BFBE91",
"E$	c #C7C79C",
"F$	c #CDCDA7",
"G$	c #D6D6B7",
"H$	c #E0E0C7",
"I$	c #D7DACA",
"J$	c #A1BDC5",
"K$	c #3E5663",
"L$	c #AE0700",
"M$	c #6E0400",
"N$	c #2F4049",
"O$	c #A1BDC6",
"P$	c #E5E3CC",
"Q$	c #D9D9BB",
"R$	c #CFCFA9",
"S$	c #D2D2B0",
"T$	c #DADABE",
"U$	c #E3E3CD",
"V$	c #DFE0D1",
"W$	c #AFC9D2",
"X$	c #4F6875",
"Y$	c #330200",
"Z$	c #161F24",
"`$	c #82A5B6",
" %	c #E2E3D3",
".%	c #E1E1C9",
"+%	c #E6E6D2",
"@%	c #E9E8D8",
"#%	c #B6D0D9",
"$%	c #557484",
"%%	c #040607",
"&%	c #64899F",
"*%	c #D3DBD5",
"=%	c #BCD5DD",
"-%	c #5A7E92",
";%	c #121A1E",
">%	c #426479",
",%	c #21313B",
"                    .     +                                     ",
"                @ # $ % & *   =                                 ",
"            - ; > , ' ) ! ~ { ] ^ /                             ",
"            ( _ : < [ } } | 1 2 3 4                             ",
"        5 6 7 8 9           0 a b c d e                         ",
"      f g h i j k         l m n o p q                           ",
"      r s t u v w x y z A B C D E F G H I                       ",
"        J K E L M N O P Q C R S   T U V                         ",
"    W X Y Z     ` O  ...+.@.#.      $.%.&.*.                    ",
"        =.-.    ;.m >.    ,.'.).    !.~.E       {.  ].          ",
"    ^./.(._.    :.<.[.    }.|.1.    2.3.4.5.6.7.8.9.0.  a.      ",
"        b.c.      d.e.f.g.h.i.j.k.  l.m.n.o.p.q.r.s.t.u.v.      ",
"      w.x.y.z.  A.B.C.D.E.F.G.H.I.J.K.L.M.N.O.P.Q.R.S.T.U.      ",
"      V.W.X.Y.Z.`. +.+      ++@+#+$+%+&+*+=+-+;+E E >+,+'+)+    ",
"        !+~+{+]+^+/+    E (+_+:+<+[+}+|+1+2+3+4+    5+6+7+      ",
"        8+  9+0+a+b+c+d+e+f+g+h+i+j+k+l+m+n+o+p+q+r+s+t+u+v+    ",
"            w+x+y+z+A+B+C+D+E+F+G+H+I+J+K+L+M+N+O+P+Q+R+E       ",
"          S+T+U+V+W+X+Y+Z+`+ @.@+@@@#@$@%@&@*@=@-@;@>@,@E       ",
"      '@)@!@~@{@]@^@/@(@_@:@<@[@}@|@1@2@3@4@5@6@7@8@9@0@a@b@    ",
"      c@d@e@f@g@h@i@j@k@l@m@n@o@p@q@r@s@t@u@v@w@x@y@z@A@B@C@    ",
"      D@E@F@G@H@I@J@K@L@M@N@O@P@Q@R@S@T@U@V@W@X@Y@Z@`@ #.#+#    ",
"      @###$#%#&#*#=#-#-#;#>#,#'#)#!#~#{#]#^#/#(#_#:#<#[#}#|#    ",
"      1#2#3#4#5#6#7#8#9#0#0#a#b#c#d#e#f#g#h#i#j#k#}#l#m#n#o#    ",
"      p#q#r#s#l#t#u#v#w#x#y#y#z#A#B#C#D#E#F#G#H#I#J#K#L#M#N#    ",
"    O#P#Q#R#S#T#U#V#W#X#Y#Z#`# $.$+$@$#$$$%$&$*$=$-$;$>$        ",
"  ,$'$)$!$~${$]$^$/$($_$:$<$[$}$|$1$2$3$4$5$6$7$8$9$            ",
"  0$  a$b$c$  d$e$f$g$h$i$j$k$l$m$n$o$p$q$r$s$t$E               ",
"      u$v$w$    x$y$z$A$B$C$D$E$F$G$H$I$J$K$E                   ",
"      L$M$        N$O$P$Q$R$S$T$U$V$W$X$E                       ",
"      Y$            Z$`$ %.%+%@%#%$%%%                          ",
"                        &%*%=%-%;%                              ",
"                          >%,%                                  "};
